# xmcd
#
# Track frame offsets:
# 150
# 20651
# 39424
# 60080
# 89218
# 97376
# 111063
# 126086
# 146410
# 157666
#
# Disc length: 2276 seconds
#
# Revision: 1
# Processed by: cddbd v1.5.2PL0 Copyright (c) Steve Scherf et al.
# Submitted via: CedeCatalogueitor 2.6.0.6 http://personales.ya.com/cdcatalogueitor
#
DISCID=7f08e20a
DTITLE=Num9 - The Glow-worm's Resistence
DYEAR=1900
DGENRE=
TTITLE0=Perfect
TTITLE1=The Travel Magazine
TTITLE2=Stars
TTITLE3=The Wait
TTITLE4=Poema De La Resistencia
TTITLE5=A Giant Step
TTITLE6=A Foreign City
TTITLE7=The Dream
TTITLE8=Poema De La Luciernaga
TTITLE9=The Glow-worm's Death
EXTD=
EXTT0=
EXTT1=
EXTT2=
EXTT3=
EXTT4=
EXTT5=
EXTT6=
EXTT7=
EXTT8=
EXTT9=
PLAYORDER=
